<?xml version="1.0" encoding="iso-8859-1"?>
<!DOCTYPE svg PUBLIC "-//W3C//DTD SVG 1.1//EN" "http://www.w3.org/Graphics/SVG/1.1/DTD/svg11.dtd">
<svg 
 version="1.1" xmlns="http://www.w3.org/2000/svg" xmlns:xlink="http://www.w3.org/1999/xlink" x="0px" y="0px" width="512px"
	 height="512px" viewBox="0 0 512 512" enable-background="new 0 0 512 512" xml:space="preserve"
><g fill="#ffffff" id="b75708d097f2188dff6617b0f00ed266"><g></g><path display="inline" d="M491.502,440.508c17.391,17.391,11.621,33.84-12.819,36.554l-114.369,12.712
		c-24.44,2.72-42.218-15.058-39.498-39.497l12.7-114.377c2.72-24.439,19.169-30.209,36.554-12.824l27.938,27.945
		c16.711-26.542,26.455-57.881,26.455-91.496c0-95.095-77.368-172.462-172.463-172.462c-95.095,0-172.462,77.367-172.462,172.462
		c0,77.61,51.549,143.395,122.192,164.965l-9.275,83.486C84.08,481.141,0.5,380.126,0.5,259.524
		c0-141.111,114.395-255.5,255.5-255.5c141.105,0,255.5,114.389,255.5,255.5c0,56.646-18.539,108.893-49.746,151.241
		L491.502,440.508z"></path></g></svg>