<?xml version="1.0" encoding="iso-8859-1"?>
<!DOCTYPE svg PUBLIC "-//W3C//DTD SVG 1.1//EN" "http://www.w3.org/Graphics/SVG/1.1/DTD/svg11.dtd">
<svg 
 version="1.1" xmlns="http://www.w3.org/2000/svg" xmlns:xlink="http://www.w3.org/1999/xlink" x="0px" y="0px" width="512px"
	 height="512px" viewBox="0 0 512 512" style="enable-background:new 0 0 512 512;" xml:space="preserve"
><g fill="#439dbb" id="afcae5a789ccd549f9c6e2a2f811530c"><g></g><path style="display: inline;  clip-rule: evenodd;" d="M249.461,9.485c0,0-46.837-11.345-89.095-10.231
		c-36.722,0.964-69.651,14.403-69.651,14.403s-22.976,6.964-34.812,22.282C44.073,51.256,43.371,74.927,43.371,74.927
		s-18.468,13.456-25.2,34.773c-5.718,18.102,0.138,44.597,0.138,44.597s-13.481,17.661-14.47,36.17
		c-1.093,20.396,10.289,41.813,10.289,41.813s-15.197,13.622-11.561,27.21c6.13,22.873,32.446,50.765,32.446,50.765
		s18.534,1.631,45.794-1.446c21.069-2.376,49.044-9.799,67.17-8.9c22.681,1.121,27.681,17.303,27.681,17.303
		s-11.287,27.437-21.086,54.239c-13.326,36.443-17.902,75.273-17.902,75.273s4.019,36.395,23.083,53.209
		c16.215,14.31,39.578,9.449,39.578,9.449s3.794-46.775,24.169-84.674c17.736-32.987,48.237-56.159,48.237-58.752
		c0-2.136,18.846-22.415,32.813-49.061c11.308-21.583,16.535-48.313,28.665-65.383c12.014-16.905,30.427-19.232,30.427-19.232
		V33.147c0,0-35.895-1.288-66.463-7.622C270.992,20.09,249.461,9.485,249.461,9.485z M495.927,19.226L392.886,17.83l2.788,233.94
		l116.967-5.568L495.927,19.226z"></path></g></svg>